<svg width="current" height="current" viewBox="0 0 19 19" fill="none" xmlns="http://www.w3.org/2000/svg">
<g>
<path d="M8.38457 12.8664L13.7069 7.54404L12.8727 6.70982L8.38457 11.198L6.12832 8.94173L5.2941 9.77595L8.38457 12.8664ZM9.50952 17.0197C8.46927 17.0197 7.4915 16.8223 6.5762 16.4275C5.6609 16.0328 4.86475 15.497 4.18774 14.8202C3.51074 14.1435 2.97471 13.3477 2.57967 12.4328C2.18476 11.5179 1.9873 10.5404 1.9873 9.50025C1.9873 8.46 2.18469 7.48222 2.57947 6.56692C2.97425 5.65162 3.51001 4.85547 4.18675 4.17847C4.8635 3.50146 5.65932 2.96543 6.57422 2.57039C7.48913 2.17548 8.46664 1.97803 9.50675 1.97803C10.547 1.97803 11.5248 2.17542 12.4401 2.57019C13.3554 2.96497 14.1515 3.50073 14.8285 4.17748C15.5055 4.85422 16.0416 5.65004 16.4366 6.56494C16.8315 7.47985 17.029 8.45736 17.029 9.49748C17.029 10.5377 16.8316 11.5155 16.4368 12.4308C16.042 13.3461 15.5063 14.1423 14.8295 14.8193C14.1528 15.4963 13.357 16.0323 12.4421 16.4273C11.5272 16.8222 10.5496 17.0197 9.50952 17.0197ZM9.50814 15.8322C11.2762 15.8322 12.7738 15.2187 14.0008 13.9916C15.2279 12.7645 15.8415 11.2669 15.8415 9.49886C15.8415 7.73081 15.2279 6.23324 14.0008 5.00615C12.7738 3.77907 11.2762 3.16553 9.50814 3.16553C7.74008 3.16553 6.24251 3.77907 5.01543 5.00615C3.78835 6.23324 3.1748 7.73081 3.1748 9.49886C3.1748 11.2669 3.78835 12.7645 5.01543 13.9916C6.24251 15.2187 7.74008 15.8322 9.50814 15.8322Z" fill="current"/>
</g>
</svg>
