<svg width="current" height="current" viewBox="0 0 19 19" fill="none" xmlns="http://www.w3.org/2000/svg">

<g >
<path d="M8.90658 13.2605H10.0941V8.70842H8.90658V13.2605ZM9.50033 7.35348C9.68149 7.35348 9.83335 7.29219 9.95593 7.16961C10.0785 7.04704 10.1398 6.89517 10.1398 6.71401C10.1398 6.53285 10.0785 6.38098 9.95593 6.2584C9.83335 6.13596 9.68149 6.07474 9.50033 6.07474C9.31917 6.07474 9.1673 6.13596 9.04472 6.2584C8.92215 6.38098 8.86086 6.53285 8.86086 6.71401C8.86086 6.89517 8.92215 7.04704 9.04472 7.16961C9.1673 7.29219 9.31917 7.35348 9.50033 7.35348ZM9.50171 17.0209C8.46146 17.0209 7.48369 16.8235 6.56839 16.4287C5.65309 16.034 4.85694 15.4982 4.17993 14.8215C3.50292 14.1447 2.9669 13.3489 2.57186 12.434C2.17695 11.5191 1.97949 10.5416 1.97949 9.50147C1.97949 8.46122 2.17688 7.48344 2.57166 6.56814C2.96644 5.65285 3.5022 4.85669 4.17894 4.17969C4.85568 3.50268 5.65151 2.96665 6.56641 2.57161C7.48131 2.1767 8.45882 1.97925 9.49894 1.97925C10.5392 1.97925 11.517 2.17664 12.4323 2.57141C13.3476 2.96619 14.1437 3.50195 14.8207 4.1787C15.4977 4.85544 16.0338 5.65126 16.4288 6.56616C16.8237 7.48107 17.0212 8.45858 17.0212 9.4987C17.0212 10.5389 16.8238 11.5167 16.429 12.432C16.0342 13.3473 15.4985 14.1435 14.8217 14.8205C14.145 15.4975 13.3491 16.0335 12.4342 16.4286C11.5193 16.8235 10.5418 17.0209 9.50171 17.0209ZM9.50033 15.8334C11.2684 15.8334 12.766 15.2199 13.993 13.9928C15.2201 12.7657 15.8337 11.2681 15.8337 9.50008C15.8337 7.73203 15.2201 6.23446 13.993 5.00737C12.766 3.78029 11.2684 3.16675 9.50033 3.16675C7.73227 3.16675 6.2347 3.78029 5.00762 5.00737C3.78053 6.23446 3.16699 7.73203 3.16699 9.50008C3.16699 11.2681 3.78053 12.7657 5.00762 13.9928C6.2347 15.2199 7.73227 15.8334 9.50033 15.8334Z" fill="current"/>
</g>
</svg>
