<svg width="current" height="current" viewBox="0 0 19 19" fill="none" xmlns="http://www.w3.org/2000/svg">
<g >
<path d="M2.71147 16.2291C2.57728 16.2291 2.45675 16.1963 2.34988 16.1307C2.243 16.0651 2.15994 15.9786 2.1007 15.8712C2.03895 15.7646 2.00497 15.6492 1.99877 15.5249C1.99257 15.4006 2.02609 15.2775 2.09931 15.1556L8.87658 3.44841C8.94994 3.32649 9.04164 3.23638 9.15168 3.17806C9.26185 3.11974 9.37783 3.09058 9.49962 3.09058C9.6214 3.09058 9.73738 3.11974 9.84755 3.17806C9.9576 3.23638 10.0493 3.32649 10.1227 3.44841L16.8999 15.1556C16.9731 15.2775 17.0067 15.4006 17.0005 15.5249C16.9943 15.6492 16.9603 15.7646 16.8985 15.8712C16.8393 15.9786 16.7562 16.0651 16.6494 16.1307C16.5425 16.1963 16.422 16.2291 16.2878 16.2291H2.71147ZM3.52253 15.0416H15.4767L9.49962 4.74991L3.52253 15.0416ZM9.49962 14.0977C9.68078 14.0977 9.83264 14.0364 9.95522 13.9138C10.0778 13.7913 10.1391 13.6394 10.1391 13.4582C10.1391 13.2771 10.0778 13.1252 9.95522 13.0026C9.83264 12.8801 9.68078 12.8188 9.49962 12.8188C9.31846 12.8188 9.16659 12.8801 9.04401 13.0026C8.92144 13.1252 8.86015 13.2771 8.86015 13.4582C8.86015 13.6394 8.92144 13.7913 9.04401 13.9138C9.16659 14.0364 9.31846 14.0977 9.49962 14.0977ZM9.49982 12.0271C9.66818 12.0271 9.80916 11.9702 9.92276 11.8565C10.0365 11.7426 10.0934 11.6016 10.0934 11.4334V8.66252C10.0934 8.4943 10.0364 8.35331 9.92256 8.23958C9.8087 8.12571 9.66765 8.06877 9.49942 8.06877C9.33106 8.06877 9.19008 8.12571 9.07647 8.23958C8.96274 8.35331 8.90587 8.4943 8.90587 8.66252V11.4334C8.90587 11.6016 8.9628 11.7426 9.07667 11.8565C9.19054 11.9702 9.33159 12.0271 9.49982 12.0271Z" fill="current"/>
</g>
</svg>
